<svg width="5176" height="2923" xmlns="http://www.w3.org/2000/svg" xmlns:xlink="http://www.w3.org/1999/xlink" xml:space="preserve" overflow="hidden"><g transform="translate(-1110 -138)"><path d="M4253.5 644.052 4298.19 644.052C4302.3 644.052 4305.64 647.387 4305.64 651.5 4305.64 655.613 4302.3 658.948 4298.19 658.948L4253.5 658.948C4249.39 658.948 4246.05 655.613 4246.05 651.5 4246.05 647.387 4249.39 644.052 4253.5 644.052ZM4364.85 651.868 4364.85 696.555C4364.85 700.669 4361.52 704.003 4357.4 704.003 4353.29 704.003 4349.96 700.669 4349.96 696.555L4349.96 651.868C4349.96 647.754 4353.29 644.42 4357.4 644.42 4361.52 644.42 4364.85 647.754 4364.85 651.868ZM4364.85 756.139 4364.85 800.826C4364.85 804.939 4361.52 808.274 4357.4 808.274 4353.29 808.274 4349.96 804.939 4349.96 800.826L4349.96 756.139C4349.96 752.025 4353.29 748.691 4357.4 748.691 4361.52 748.691 4364.85 752.025 4364.85 756.139ZM4364.85 860.409 4364.85 905.097C4364.85 909.21 4361.52 912.545 4357.4 912.545 4353.29 912.545 4349.96 909.21 4349.96 905.097L4349.96 860.409C4349.96 856.296 4353.29 852.962 4357.4 852.962 4361.52 852.962 4364.85 856.296 4364.85 860.409ZM4376.14 938.499 4420.82 938.499C4424.94 938.499 4428.27 941.833 4428.27 945.947 4428.27 950.06 4424.94 953.394 4420.82 953.394L4376.14 953.394C4372.02 953.394 4368.69 950.06 4368.69 945.947 4368.69 941.833 4372.02 938.499 4376.14 938.499ZM4440.49 945.947 4425.6 923.603 4470.29 945.947 4425.6 968.29Z" fill="#92D050"/><path d="M0-7.44792 44.6875-7.44792C48.8009-7.44792 52.1354-4.11337 52.1354 0 52.1354 4.11337 48.8009 7.44792 44.6875 7.44792L0 7.44792C-4.11337 7.44792-7.44792 4.11337-7.44792 0-7.44792-4.11337-4.11337-7.44792 0-7.44792ZM109.082 2.6363 109.082 47.3238C109.082 51.4372 105.748 54.7717 101.635 54.7717 97.5212 54.7717 94.1866 51.4372 94.1866 47.3238L94.1866 2.6363C94.1866-1.47707 97.5212-4.81162 101.635-4.81162 105.748-4.81162 109.082-1.47707 109.082 2.6363ZM109.082 106.907 109.082 151.595C109.082 155.708 105.748 159.043 101.635 159.043 97.5212 159.043 94.1866 155.708 94.1866 151.595L94.1866 106.907C94.1866 102.794 97.5212 99.4592 101.635 99.4592 105.748 99.4592 109.082 102.794 109.082 106.907ZM109.082 211.178 109.082 255.865C109.082 259.979 105.748 263.313 101.635 263.313 97.5212 263.313 94.1866 259.979 94.1866 255.865L94.1866 211.178C94.1866 207.065 97.5212 203.73 101.635 203.73 105.748 203.73 109.082 207.065 109.082 211.178ZM112.291 297.344 156.978 297.344C161.092 297.344 164.426 300.679 164.426 304.792 164.426 308.906 161.092 312.24 156.978 312.24L112.291 312.24C108.178 312.24 104.843 308.906 104.843 304.792 104.843 300.679 108.178 297.344 112.291 297.344ZM187.52 304.792 172.625 282.449 217.312 304.792 172.625 327.136Z" fill="#92D050" transform="matrix(1 0 0 -1 4252.5 1251.29)"/><path d="M0-7.44792 44.6875-7.44792C48.8009-7.44792 52.1354-4.11337 52.1354 0 52.1354 4.11337 48.8009 7.44792 44.6875 7.44792L0 7.44792C-4.11337 7.44792-7.44792 4.11337-7.44792 0-7.44792-4.11337-4.11337-7.44792 0-7.44792ZM104.271-7.44792 148.958-7.44792C153.072-7.44792 156.406-4.11337 156.406 0 156.406 4.11337 153.072 7.44792 148.958 7.44792L104.271 7.44792C100.157 7.44792 96.8229 4.11337 96.8229 0 96.8229-4.11337 100.157-7.44792 104.271-7.44792ZM208.542-7.44792 253.229-7.44792C257.343-7.44792 260.677-4.11337 260.677 0 260.677 4.11337 257.343 7.44792 253.229 7.44792L208.542 7.44792C204.428 7.44792 201.094 4.11337 201.094 0 201.094-4.11337 204.428-7.44792 208.542-7.44792ZM312.812-7.44792 357.5-7.44792C361.613-7.44792 364.948-4.11337 364.948 0 364.948 4.11337 361.613 7.44792 357.5 7.44792L312.812 7.44792C308.699 7.44792 305.365 4.11337 305.365 0 305.365-4.11337 308.699-7.44792 312.812-7.44792ZM417.083-7.44792 461.771-7.44792C465.884-7.44792 469.219-4.11337 469.219 0 469.219 4.11337 465.884 7.44792 461.771 7.44792L417.083 7.44792C412.97 7.44792 409.635 4.11337 409.635 0 409.635-4.11337 412.97-7.44792 417.083-7.44792ZM521.354-7.44792 566.042-7.44792C570.155-7.44792 573.49-4.11337 573.49 0 573.49 4.11337 570.155 7.44792 566.042 7.44792L521.354 7.44792C517.241 7.44792 513.906 4.11337 513.906 0 513.906-4.11337 517.241-7.44792 521.354-7.44792ZM625.625-7.44792 636.646-7.44792C640.759-7.44792 644.094-4.11337 644.094 0L644.094 0.422605 636.646-7.02531 669.89-7.02531C674.003-7.02531 677.338-3.69077 677.338 0.422605 677.338 4.53598 674.003 7.87052 669.89 7.87052L636.646 7.87052C632.532 7.87052 629.198 4.53598 629.198 0.422605L629.198 0 636.646 7.44792 625.625 7.44792C621.512 7.44792 618.177 4.11337 618.177 0 618.177-4.11337 621.512-7.44792 625.625-7.44792ZM729.473-7.02531 774.161-7.02531C778.274-7.02531 781.609-3.69077 781.609 0.422605 781.609 4.53598 778.274 7.87052 774.161 7.87052L729.473 7.87052C725.36 7.87052 722.025 4.53598 722.025 0.422605 722.025-3.69077 725.36-7.02531 729.473-7.02531ZM833.744-7.02531 878.432-7.02531C882.545-7.02531 885.879-3.69077 885.879 0.422605 885.879 4.53598 882.545 7.87052 878.432 7.87052L833.744 7.87052C829.631 7.87052 826.296 4.53598 826.296 0.422605 826.296-3.69077 829.631-7.02531 833.744-7.02531ZM938.015-7.02531 982.702-7.02531C986.816-7.02531 990.15-3.69077 990.15 0.422605 990.15 4.53598 986.816 7.87052 982.702 7.87052L938.015 7.87052C933.902 7.87052 930.567 4.53598 930.567 0.422605 930.567-3.69077 933.902-7.02531 938.015-7.02531ZM1042.29-7.02531 1086.97-7.02531C1091.09-7.02531 1094.42-3.69077 1094.42 0.422605 1094.42 4.53598 1091.09 7.87052 1086.97 7.87052L1042.29 7.87052C1038.17 7.87052 1034.84 4.53598 1034.84 0.422605 1034.84-3.69077 1038.17-7.02531 1042.29-7.02531ZM1146.56-7.02531 1191.24-7.02531C1195.36-7.02531 1198.69-3.69077 1198.69 0.422605 1198.69 4.53598 1195.36 7.87052 1191.24 7.87052L1146.56 7.87052C1142.44 7.87052 1139.11 4.53598 1139.11 0.422605 1139.11-3.69077 1142.44-7.02531 1146.56-7.02531ZM1243.5 0.422605 1228.6-21.9211 1273.29 0.422605 1228.6 22.7664Z" fill="#92D050" transform="matrix(1 0 0 -1 3196.5 946.922)"/><path d="M4252.5 1964.05 4297.19 1964.05C4301.3 1964.05 4304.64 1967.39 4304.64 1971.5 4304.64 1975.61 4301.3 1978.95 4297.19 1978.95L4252.5 1978.95C4248.39 1978.95 4245.05 1975.61 4245.05 1971.5 4245.05 1967.39 4248.39 1964.05 4252.5 1964.05ZM4356.77 1964.05 4364.28 1964.05C4368.39 1964.05 4371.73 1967.39 4371.73 1971.5L4371.73 2008.68C4371.73 2012.79 4368.39 2016.13 4364.28 2016.13 4360.16 2016.13 4356.83 2012.79 4356.83 2008.68L4356.83 1971.5 4364.28 1978.95 4356.77 1978.95C4352.66 1978.95 4349.32 1975.61 4349.32 1971.5 4349.32 1967.39 4352.66 1964.05 4356.77 1964.05ZM4371.73 2068.26 4371.73 2112.95C4371.73 2117.06 4368.39 2120.4 4364.28 2120.4 4360.16 2120.4 4356.83 2117.06 4356.83 2112.95L4356.83 2068.26C4356.83 2064.15 4360.16 2060.82 4364.28 2060.82 4368.39 2060.82 4371.73 2064.15 4371.73 2068.26ZM4371.73 2172.53 4371.73 2217.22C4371.73 2221.34 4368.39 2224.67 4364.28 2224.67 4360.16 2224.67 4356.83 2221.34 4356.83 2217.22L4356.83 2172.53C4356.83 2168.42 4360.16 2165.09 4364.28 2165.09 4368.39 2165.09 4371.73 2168.42 4371.73 2172.53ZM4379.13 2254.5 4423.82 2254.5C4427.93 2254.5 4431.27 2257.84 4431.27 2261.95 4431.27 2266.06 4427.93 2269.4 4423.82 2269.4L4379.13 2269.4C4375.02 2269.4 4371.69 2266.06 4371.69 2261.95 4371.69 2257.84 4375.02 2254.5 4379.13 2254.5ZM4446.26 2261.95 4431.37 2239.61 4476.06 2261.95 4431.37 2284.29Z" fill="#92D050"/><path d="M0-7.44792 44.6875-7.44792C48.8009-7.44792 52.1354-4.11337 52.1354 0 52.1354 4.11337 48.8009 7.44792 44.6875 7.44792L0 7.44792C-4.11337 7.44792-7.44792 4.11337-7.44792 0-7.44792-4.11337-4.11337-7.44792 0-7.44792ZM104.271-7.44792 111.721-7.44792C115.834-7.44792 119.169-4.11337 119.169 0L119.169 37.2376C119.169 41.351 115.834 44.6855 111.721 44.6855 107.607 44.6855 104.273 41.351 104.273 37.2376L104.273 0 111.721 7.44792 104.271 7.44792C100.157 7.44792 96.8229 4.11337 96.8229 0 96.8229-4.11337 100.157-7.44792 104.271-7.44792ZM119.169 96.8209 119.169 141.508C119.169 145.622 115.834 148.956 111.721 148.956 107.607 148.956 104.273 145.622 104.273 141.508L104.273 96.8209C104.273 92.7076 107.607 89.373 111.721 89.373 115.834 89.373 119.169 92.7076 119.169 96.8209ZM119.169 201.092 119.169 245.779C119.169 249.893 115.834 253.227 111.721 253.227 107.607 253.227 104.273 249.893 104.273 245.779L104.273 201.092C104.273 196.978 107.607 193.644 111.721 193.644 115.834 193.644 119.169 196.978 119.169 201.092ZM112.077 297.559 156.764 297.559C160.877 297.559 164.212 300.893 164.212 305.007 164.212 309.12 160.877 312.455 156.764 312.455L112.077 312.455C107.963 312.455 104.629 309.12 104.629 305.007 104.629 300.893 107.963 297.559 112.077 297.559ZM193.65 305.007 178.754 282.663 223.441 305.007 178.754 327.35Z" fill="#92D050" transform="matrix(1 0 0 -1 4253.5 2566.51)"/><path d="M0-7.44792 44.6875-7.44792C48.8009-7.44792 52.1354-4.11337 52.1354 0 52.1354 4.11337 48.8009 7.44792 44.6875 7.44792L0 7.44792C-4.11337 7.44792-7.44792 4.11337-7.44792 0-7.44792-4.11337-4.11337-7.44792 0-7.44792ZM104.271-7.44792 148.958-7.44792C153.072-7.44792 156.406-4.11337 156.406 0 156.406 4.11337 153.072 7.44792 148.958 7.44792L104.271 7.44792C100.157 7.44792 96.8229 4.11337 96.8229 0 96.8229-4.11337 100.157-7.44792 104.271-7.44792ZM208.542-7.44792 253.229-7.44792C257.343-7.44792 260.677-4.11337 260.677 0 260.677 4.11337 257.343 7.44792 253.229 7.44792L208.542 7.44792C204.428 7.44792 201.094 4.11337 201.094 0 201.094-4.11337 204.428-7.44792 208.542-7.44792ZM312.812-7.44792 357.5-7.44792C361.613-7.44792 364.948-4.11337 364.948 0 364.948 4.11337 361.613 7.44792 357.5 7.44792L312.812 7.44792C308.699 7.44792 305.365 4.11337 305.365 0 305.365-4.11337 308.699-7.44792 312.812-7.44792ZM417.083-7.44792 461.771-7.44792C465.884-7.44792 469.219-4.11337 469.219 0 469.219 4.11337 465.884 7.44792 461.771 7.44792L417.083 7.44792C412.97 7.44792 409.635 4.11337 409.635 0 409.635-4.11337 412.97-7.44792 417.083-7.44792ZM521.354-7.44792 566.042-7.44792C570.155-7.44792 573.49-4.11337 573.49 0 573.49 4.11337 570.155 7.44792 566.042 7.44792L521.354 7.44792C517.241 7.44792 513.906 4.11337 513.906 0 513.906-4.11337 517.241-7.44792 521.354-7.44792ZM625.625-7.44792 630.465-7.44792C634.578-7.44792 637.913-4.11337 637.913 0L637.913 0.151575 630.465-7.29634 670.161-7.29634C674.274-7.29634 677.609-3.9618 677.609 0.151575 677.609 4.26495 674.274 7.59949 670.161 7.59949L630.465 7.59949C626.352 7.59949 623.017 4.26495 623.017 0.151575L623.017 0 630.465 7.44792 625.625 7.44792C621.512 7.44792 618.177 4.11337 618.177 0 618.177-4.11337 621.512-7.44792 625.625-7.44792ZM729.744-7.29634 774.432-7.29634C778.545-7.29634 781.88-3.9618 781.88 0.151575 781.88 4.26495 778.545 7.59949 774.432 7.59949L729.744 7.59949C725.631 7.59949 722.296 4.26495 722.296 0.151575 722.296-3.9618 725.631-7.29634 729.744-7.29634ZM834.015-7.29634 878.703-7.29634C882.816-7.29634 886.151-3.9618 886.151 0.151575 886.151 4.26495 882.816 7.59949 878.703 7.59949L834.015 7.59949C829.902 7.59949 826.567 4.26495 826.567 0.151575 826.567-3.9618 829.902-7.29634 834.015-7.29634ZM938.286-7.29634 982.973-7.29634C987.087-7.29634 990.421-3.9618 990.421 0.151575 990.421 4.26495 987.087 7.59949 982.973 7.59949L938.286 7.59949C934.173 7.59949 930.838 4.26495 930.838 0.151575 930.838-3.9618 934.173-7.29634 938.286-7.29634ZM1042.56-7.29634 1087.24-7.29634C1091.36-7.29634 1094.69-3.9618 1094.69 0.151575 1094.69 4.26495 1091.36 7.59949 1087.24 7.59949L1042.56 7.59949C1038.44 7.59949 1035.11 4.26495 1035.11 0.151575 1035.11-3.9618 1038.44-7.29634 1042.56-7.29634ZM1146.83-7.29634 1191.52-7.29634C1195.63-7.29634 1198.96-3.9618 1198.96 0.151575 1198.96 4.26495 1195.63 7.59949 1191.52 7.59949L1146.83 7.59949C1142.71 7.59949 1139.38 4.26495 1139.38 0.151575 1139.38-3.9618 1142.71-7.29634 1146.83-7.29634ZM1231.14 0.151575 1216.24-22.1922 1260.93 0.151575 1216.24 22.4953Z" fill="#92D050" transform="matrix(1 0 0 -1 3215.5 2261.65)"/><path d="M0-7.44792 44.6875-7.44792C48.8009-7.44792 52.1354-4.11337 52.1354 0 52.1354 4.11337 48.8009 7.44792 44.6875 7.44792L0 7.44792C-4.11337 7.44792-7.44792 4.11337-7.44792 0-7.44792-4.11337-4.11337-7.44792 0-7.44792ZM104.271-7.44792 148.958-7.44792C153.072-7.44792 156.406-4.11337 156.406 0 156.406 4.11337 153.072 7.44792 148.958 7.44792L104.271 7.44792C100.157 7.44792 96.8229 4.11337 96.8229 0 96.8229-4.11337 100.157-7.44792 104.271-7.44792ZM208.542-7.44792 253.229-7.44792C257.343-7.44792 260.677-4.11337 260.677 0 260.677 4.11337 257.343 7.44792 253.229 7.44792L208.542 7.44792C204.428 7.44792 201.094 4.11337 201.094 0 201.094-4.11337 204.428-7.44792 208.542-7.44792ZM312.812-7.44792 357.5-7.44792C361.613-7.44792 364.948-4.11337 364.948 0 364.948 4.11337 361.613 7.44792 357.5 7.44792L312.812 7.44792C308.699 7.44792 305.365 4.11337 305.365 0 305.365-4.11337 308.699-7.44792 312.812-7.44792ZM423.96 0.570932 423.96 45.2584C423.96 49.3718 420.626 52.7063 416.512 52.7063 412.399 52.7063 409.064 49.3718 409.064 45.2584L409.064 0.570932C409.064-3.54244 412.399-6.87699 416.512-6.87699 420.626-6.87699 423.96-3.54244 423.96 0.570932ZM423.96 104.842 423.96 149.529C423.96 153.643 420.626 156.977 416.512 156.977 412.399 156.977 409.064 153.643 409.064 149.529L409.064 104.842C409.064 100.728 412.399 97.3938 416.512 97.3938 420.626 97.3938 423.96 100.728 423.96 104.842ZM423.96 209.113 423.96 253.8C423.96 257.913 420.626 261.248 416.512 261.248 412.399 261.248 409.064 257.913 409.064 253.8L409.064 209.113C409.064 204.999 412.399 201.665 416.512 201.665 420.626 201.665 423.96 204.999 423.96 209.113ZM423.96 313.383 423.96 358.071C423.96 362.184 420.626 365.519 416.512 365.519 412.399 365.519 409.064 362.184 409.064 358.071L409.064 313.383C409.064 309.27 412.399 305.936 416.512 305.936 420.626 305.936 423.96 309.27 423.96 313.383ZM423.96 417.654 423.96 462.342C423.96 466.455 420.626 469.79 416.512 469.79 412.399 469.79 409.064 466.455 409.064 462.342L409.064 417.654C409.064 413.541 412.399 410.206 416.512 410.206 420.626 410.206 423.96 413.541 423.96 417.654ZM423.96 521.925 423.96 566.613C423.96 570.726 420.626 574.06 416.512 574.06 412.399 574.06 409.064 570.726 409.064 566.613L409.064 521.925C409.064 517.812 412.399 514.477 416.512 514.477 420.626 514.477 423.96 517.812 423.96 521.925ZM423.96 626.196 423.96 668.604C423.96 672.718 420.626 676.052 416.512 676.052 412.399 676.052 409.064 672.718 409.064 668.604L409.064 626.196C409.064 622.083 412.399 618.748 416.512 618.748 420.626 618.748 423.96 622.083 423.96 626.196ZM416.512 668.604 438.856 653.708 416.512 698.396 394.169 653.708Z" fill="#92D050" transform="matrix(1.83697e-16 1 1 -1.83697e-16 4771.5 1245.5)"/><path d="M4772.05 1958.59 4772.05 1913.9C4772.05 1909.79 4775.39 1906.45 4779.5 1906.45 4783.61 1906.45 4786.95 1909.79 4786.95 1913.9L4786.95 1958.59C4786.95 1962.7 4783.61 1966.03 4779.5 1966.03 4775.39 1966.03 4772.05 1962.7 4772.05 1958.59ZM4772.05 1854.32 4772.05 1809.63C4772.05 1805.52 4775.39 1802.18 4779.5 1802.18 4783.61 1802.18 4786.95 1805.52 4786.95 1809.63L4786.95 1854.32C4786.95 1858.43 4783.61 1861.76 4779.5 1861.76 4775.39 1861.76 4772.05 1858.43 4772.05 1854.32ZM4772.05 1750.05 4772.05 1705.36C4772.05 1701.24 4775.39 1697.91 4779.5 1697.91 4783.61 1697.91 4786.95 1701.24 4786.95 1705.36L4786.95 1750.05C4786.95 1754.16 4783.61 1757.49 4779.5 1757.49 4775.39 1757.49 4772.05 1754.16 4772.05 1750.05ZM4795.23 1654.05 4839.91 1654.05C4844.03 1654.05 4847.36 1657.39 4847.36 1661.5 4847.36 1665.61 4844.03 1668.95 4839.91 1668.95L4795.23 1668.95C4791.11 1668.95 4787.78 1665.61 4787.78 1661.5 4787.78 1657.39 4791.11 1654.05 4795.23 1654.05ZM4899.5 1654.05 4944.18 1654.05C4948.3 1654.05 4951.63 1657.39 4951.63 1661.5 4951.63 1665.61 4948.3 1668.95 4944.18 1668.95L4899.5 1668.95C4895.38 1668.95 4892.05 1665.61 4892.05 1661.5 4892.05 1657.39 4895.38 1654.05 4899.5 1654.05ZM5003.77 1654.05 5048.45 1654.05C5052.57 1654.05 5055.9 1657.39 5055.9 1661.5 5055.9 1665.61 5052.57 1668.95 5048.45 1668.95L5003.77 1668.95C4999.65 1668.95 4996.32 1665.61 4996.32 1661.5 4996.32 1657.39 4999.65 1654.05 5003.77 1654.05ZM5108.04 1654.05 5152.73 1654.05C5156.84 1654.05 5160.17 1657.39 5160.17 1661.5 5160.17 1665.61 5156.84 1668.95 5152.73 1668.95L5108.04 1668.95C5103.92 1668.95 5100.59 1665.61 5100.59 1661.5 5100.59 1657.39 5103.92 1654.05 5108.04 1654.05ZM5212.31 1654.05 5257 1654.05C5261.11 1654.05 5264.44 1657.39 5264.44 1661.5 5264.44 1665.61 5261.11 1668.95 5257 1668.95L5212.31 1668.95C5208.2 1668.95 5204.86 1665.61 5204.86 1661.5 5204.86 1657.39 5208.2 1654.05 5212.31 1654.05ZM5316.58 1654.05 5361.27 1654.05C5365.38 1654.05 5368.71 1657.39 5368.71 1661.5 5368.71 1665.61 5365.38 1668.95 5361.27 1668.95L5316.58 1668.95C5312.47 1668.95 5309.13 1665.61 5309.13 1661.5 5309.13 1657.39 5312.47 1654.05 5316.58 1654.05ZM5420.85 1654.05 5440.17 1654.05C5444.29 1654.05 5447.62 1657.39 5447.62 1661.5 5447.62 1665.61 5444.29 1668.95 5440.17 1668.95L5420.85 1668.95C5416.74 1668.95 5413.4 1665.61 5413.4 1661.5 5413.4 1657.39 5416.74 1654.05 5420.85 1654.05ZM5440.17 1661.5 5425.28 1639.16 5469.97 1661.5 5425.28 1683.84Z" fill="#92D050"/><path d="M5.70617-4.78656 233.549 266.83C236.192 269.981 235.78 274.679 232.629 277.322 229.478 279.966 224.78 279.554 222.136 276.403L-5.70617 4.78656C-8.34971 1.63513-7.93799-3.06262-4.78656-5.70617-1.63513-8.34971 3.06262-7.93799 5.70617-4.78656ZM227.843 271.617 235.388 245.845 246.989 294.441 201.151 274.564Z" fill="#92D050" transform="matrix(1 0 0 -1 3196.5 946.941)"/><path d="M3202.3 941.828 3428.91 1223.15C3431.49 1226.35 3430.99 1231.04 3427.78 1233.62 3424.58 1236.2 3419.89 1235.69 3417.31 1232.49L3190.7 951.172C3188.12 947.969 3188.62 943.28 3191.83 940.7 3195.03 938.119 3199.72 938.624 3202.3 941.828ZM3423.11 1227.82 3431.17 1202.2 3441.8 1251.02 3396.37 1230.24Z" fill="#92D050"/><path d="M3668 1968 3727.72 1969.48" stroke="#92D050" stroke-width="8.02083" stroke-linecap="round" stroke-linejoin="round" stroke-miterlimit="10" stroke-dasharray="24.0625 32.0833" fill="none" fill-rule="evenodd"/><path d="M3958 1970 4021.35 1970.81" stroke="#92D050" stroke-width="8.02083" stroke-linecap="round" stroke-linejoin="round" stroke-miterlimit="10" stroke-dasharray="24.0625 32.0833" fill="none" fill-rule="evenodd"/><path d="M0 0 61.4621 0.129921" stroke="#92D050" stroke-width="8.02083" stroke-linecap="round" stroke-linejoin="round" stroke-miterlimit="10" stroke-dasharray="24.0625 32.0833" fill="none" fill-rule="evenodd" transform="matrix(1 0 0 -1 3669 2565.13)"/><path d="M3962 2565 4022.53 2566.17" stroke="#92D050" stroke-width="8.02083" stroke-linecap="round" stroke-linejoin="round" stroke-miterlimit="10" stroke-dasharray="24.0625 32.0833" fill="none" fill-rule="evenodd"/><path d="M3673 652 3725.42 652.069" stroke="#92D050" stroke-width="8.02083" stroke-linecap="round" stroke-linejoin="round" stroke-miterlimit="10" stroke-dasharray="24.0625 32.0833" fill="none" fill-rule="evenodd"/><path d="M0 0 66.3854 0.437402" stroke="#92D050" stroke-width="8.02083" stroke-linecap="round" stroke-linejoin="round" stroke-miterlimit="10" stroke-dasharray="24.0625 32.0833" fill="none" fill-rule="evenodd" transform="matrix(1 0 0 -1 3956 651.437)"/><path d="M0 0 55.1851 0.43668" stroke="#92D050" stroke-width="8.02083" stroke-linecap="round" stroke-linejoin="round" stroke-miterlimit="10" stroke-dasharray="24.0625 32.0833" fill="none" fill-rule="evenodd" transform="matrix(1 0 0 -1 3672 1251.44)"/><path d="M0 0 63.4572 0.43668" stroke="#92D050" stroke-width="8.02083" stroke-linecap="round" stroke-linejoin="round" stroke-miterlimit="10" stroke-dasharray="24.0625 32.0833" fill="none" fill-rule="evenodd" transform="matrix(1 0 0 -1 3958 1250.44)"/><path d="M5.92064-4.51857 211.82 265.27C214.316 268.54 213.688 273.213 210.418 275.709 207.148 278.204 202.474 277.577 199.979 274.307L-5.92064 4.51857C-8.41618 1.24869-7.78845-3.4251-4.51857-5.92064-1.24869-8.41618 3.4251-7.78845 5.92064-4.51857ZM205.9 269.788 214.624 244.391 223.974 293.471 179.1 271.503Z" fill="#92D050" transform="matrix(1 0 0 -1 3215.5 2261.97)"/><path d="M3221.5 2257.09 3427.45 2537.59C3429.89 2540.91 3429.17 2545.57 3425.86 2548 3422.54 2550.44 3417.88 2549.72 3415.45 2546.41L3209.5 2265.91C3207.06 2262.59 3207.78 2257.93 3211.09 2255.5 3214.41 2253.06 3219.07 2253.78 3221.5 2257.09ZM3421.45 2542 3430.64 2516.77 3439.08 2566.01 3394.62 2543.21Z" fill="#92D050"/><path d="M6.29937-3.97358 443.115 688.517C445.31 691.996 444.268 696.595 440.789 698.79 437.31 700.984 432.711 699.943 430.516 696.464L-6.29937 3.97358C-8.49392 0.494533-7.45263-4.10483-3.97358-6.29937-0.494533-8.49392 4.10483-7.45263 6.29937-3.97358ZM436.817 692.492 447.768 667.972 452.711 717.689 409.971 691.814Z" fill="#92D050" transform="matrix(1 0 0 -1 1929.5 1664.19)"/><path d="M1935.34 1660.88 2388.42 2233.35C2390.97 2236.58 2390.42 2241.26 2387.2 2243.82 2383.97 2246.37 2379.29 2245.82 2376.74 2242.6L1923.66 1670.12C1921.11 1666.9 1921.65 1662.21 1924.88 1659.66 1928.1 1657.11 1932.79 1657.65 1935.34 1660.88ZM2382.58 2237.98 2390.85 2212.43 2401.06 2261.34 2355.81 2240.16Z" fill="#92D050"/><rect x="1110" y="1128" width="819" height="1071" fill="#FF99C8"/><text fill="#FFFFFF" font-family="Times New Roman,Times New Roman_MSFontService,sans-serif" font-weight="400" font-size="110" transform="matrix(1 0 0 1 1413.48 1457)">Data </text><text fill="#FFFFFF" font-family="Times New Roman,Times New Roman_MSFontService,sans-serif" font-weight="400" font-size="110" transform="matrix(1 0 0 1 1288.22 1583)">Extraction </text><g><text fill="#FFFFFF" font-family="Times New Roman,Times New Roman_MSFontService,sans-serif" font-weight="400" font-size="110" transform="matrix(1 0 0 1 1230.08 1710)">from LAMP, </text></g><g><text fill="#FFFFFF" font-family="Times New Roman,Times New Roman_MSFontService,sans-serif" font-weight="400" font-size="110" transform="matrix(1 0 0 1 1190.3 1836)">CAMP R3 and </text></g><text fill="#FFFFFF" font-family="Times New Roman,Times New Roman_MSFontService,sans-serif" font-weight="400" font-size="110" transform="matrix(1 0 0 1 1346.2 1963)">Uniprot</text><rect x="2381" y="410" width="815" height="1072" fill="#A3C4F3"/><g><text fill="#FFFFFF" font-family="Times New Roman,Times New Roman_MSFontService,sans-serif" font-weight="400" font-size="92" transform="matrix(1 0 0 1 2449 926)">MACREL Feature </text></g><text fill="#FFFFFF" font-family="Times New Roman,Times New Roman_MSFontService,sans-serif" font-weight="400" font-size="92" transform="matrix(1 0 0 1 2730.3 1031)">Set</text><rect x="2400" y="1723" width="815" height="1072" fill="#CFBAF0"/><g><text fill="#FFFFFF" font-family="Times New Roman,Times New Roman_MSFontService,sans-serif" font-weight="400" font-size="110" transform="matrix(1 0 0 1 2454.73 2236)">AMPeP Feature </text></g><text fill="#FFFFFF" font-family="Times New Roman,Times New Roman_MSFontService,sans-serif" font-weight="400" font-size="110" transform="matrix(1 0 0 1 2737.32 2362)">Set</text><rect x="3443" y="532" width="231" height="240" fill="#FFD991"/><text fill="#FFFFFF" font-family="Times New Roman,Times New Roman_MSFontService,sans-serif" font-weight="400" font-size="92" transform="matrix(1 0 0 1 3502.62 685)">RF</text><rect x="3726" y="532" width="231" height="239" fill="#FFD991"/><text fill="#FFFFFF" font-family="Times New Roman,Times New Roman_MSFontService,sans-serif" font-weight="400" font-size="92" transform="matrix(1 0 0 1 3785.69 685)">RF</text><rect x="4023" y="532" width="231" height="239" fill="#FFD991"/><text fill="#FFFFFF" font-family="Times New Roman,Times New Roman_MSFontService,sans-serif" font-weight="400" font-size="92" transform="matrix(1 0 0 1 4082.71 685)">RF</text><rect x="3442" y="1130" width="231" height="241" fill="#FF8FAB"/><g><text fill="#FFFFFF" font-family="Times New Roman,Times New Roman_MSFontService,sans-serif" font-weight="400" font-size="92" transform="matrix(1 0 0 1 3491.03 1284)">NN</text></g><rect x="3728" y="1130" width="231" height="240" fill="#FF8FAB"/><g><text fill="#FFFFFF" font-family="Times New Roman,Times New Roman_MSFontService,sans-serif" font-weight="400" font-size="92" transform="matrix(1 0 0 1 3777.3 1283)">NN</text></g><rect x="4022" y="1130" width="232" height="239" fill="#FF8FAB"/><g><text fill="#FFFFFF" font-family="Times New Roman,Times New Roman_MSFontService,sans-serif" font-weight="400" font-size="92" transform="matrix(1 0 0 1 4071.83 1283)">NN</text></g><rect x="3439" y="1849" width="231" height="239" fill="#FFD991"/><text fill="#FFFFFF" font-family="Times New Roman,Times New Roman_MSFontService,sans-serif" font-weight="400" font-size="92" transform="matrix(1 0 0 1 3498.31 2002)">RF</text><rect x="3729" y="1851" width="231" height="238" fill="#FFD991"/><text fill="#FFFFFF" font-family="Times New Roman,Times New Roman_MSFontService,sans-serif" font-weight="400" font-size="92" transform="matrix(1 0 0 1 3788.55 2003)">RF</text><rect x="4023" y="1852" width="231" height="238" fill="#FFD991"/><text fill="#FFFFFF" font-family="Times New Roman,Times New Roman_MSFontService,sans-serif" font-weight="400" font-size="92" transform="matrix(1 0 0 1 4082.41 2004)">RF</text><rect x="3439" y="2446" width="231" height="239" fill="#FF8FAB"/><g><text fill="#FFFFFF" font-family="Times New Roman,Times New Roman_MSFontService,sans-serif" font-weight="400" font-size="92" transform="matrix(1 0 0 1 3488.03 2598)">NN</text></g><rect x="3731" y="2446" width="231" height="238" fill="#FF8FAB"/><g><text fill="#FFFFFF" font-family="Times New Roman,Times New Roman_MSFontService,sans-serif" font-weight="400" font-size="92" transform="matrix(1 0 0 1 3780.55 2598)">NN</text></g><rect x="4023" y="2447" width="231" height="238" fill="#FF8FAB"/><g><text fill="#FFFFFF" font-family="Times New Roman,Times New Roman_MSFontService,sans-serif" font-weight="400" font-size="92" transform="matrix(1 0 0 1 4072.14 2599)">NN</text></g><rect x="4470" y="646" width="603" height="599" fill="#AAB3EE"/><text fill="#FFFFFF" font-family="Times New Roman,Times New Roman_MSFontService,sans-serif" font-weight="400" font-size="92" transform="matrix(1 0 0 1 4562.39 979)">sMACREL</text><rect x="4476" y="1958" width="606" height="605" fill="#B28DFF"/><text fill="#FFFFFF" font-family="Times New Roman,Times New Roman_MSFontService,sans-serif" font-weight="400" font-size="92" transform="matrix(1 0 0 1 4616.05 2294)">sAMPeP</text><path d="M3444.5 480.5C3444.5 440.459 3468.32 408 3497.71 408L3794.71 408C3824.1 408 3847.92 375.54 3847.92 335.499 3847.92 375.54 3871.74 408 3901.13 408L4198.29 408C4227.68 408 4251.5 440.459 4251.5 480.5" stroke="#FF0000" stroke-width="6.875" stroke-linecap="round" stroke-linejoin="round" stroke-miterlimit="10" stroke-dasharray="13.75 13.75" fill="none" fill-rule="evenodd"/><path d="M4244.5 2714.5C4244.5 2753.99 4221.01 2786 4192.02 2786L3894.56 2786C3865.57 2786 3842.08 2818.01 3842.08 2857.5 3842.08 2818.01 3818.59 2786 3789.6 2786L3491.98 2786C3462.99 2786 3439.5 2753.99 3439.5 2714.5" stroke="#FF0000" stroke-width="6.875" stroke-linecap="round" stroke-linejoin="round" stroke-miterlimit="10" stroke-dasharray="13.75 13.75" fill="none" fill-rule="evenodd"/><rect x="5470" y="1125" width="816" height="1072" fill="#D0CECE"/><text fill="#FFFFFF" font-family="Times New Roman,Times New Roman_MSFontService,sans-serif" font-weight="400" font-size="147" transform="matrix(1 0 0 1 5718.66 1629)">AMP </text><g><text fill="#FFFFFF" font-family="Times New Roman,Times New Roman_MSFontService,sans-serif" font-weight="400" font-size="147" transform="matrix(1 0 0 1 5547.63 1798)">Predictions</text></g><g><text font-family="Times New Roman,Times New Roman_MSFontService,sans-serif" font-weight="700" font-size="92" transform="matrix(1 0 0 1 3672.79 254)">Soft Vote</text></g><g><text font-family="Times New Roman,Times New Roman_MSFontService,sans-serif" font-weight="700" font-size="92" transform="matrix(1 0 0 1 3675.3 3011)">Soft Vote</text></g><g><text font-family="Times New Roman,Times New Roman_MSFontService,sans-serif" font-weight="700" font-size="92" transform="matrix(1 0 0 1 4914.34 1620)">Soft Vote</text></g><g><text font-family="Times New Roman,Times New Roman_MSFontService,sans-serif" font-weight="700" font-size="92" transform="matrix(1 0 0 1 4696.88 618)">RF</text></g><g><text font-family="Times New Roman,Times New Roman_MSFontService,sans-serif" font-weight="700" font-size="92" transform="matrix(1 0 0 1 4718.24 2688)">RF</text></g></g></svg>